<?xml version="1.0" encoding="UTF-8"?>
<svg xmlns:xodm="http://www.corel.com/coreldraw/odm/2003" xmlns="http://www.w3.org/2000/svg" xmlns:xlink="http://www.w3.org/1999/xlink" version="1.1" id="Layer_1" x="0px" y="0px" viewBox="0 0 2500 2500" style="enable-background:new 0 0 2500 2500;" xml:space="preserve">
<style type="text/css">
	.st0{fill:none;}
	.st1{fill:#F00500;}
	.st2{fill:#FFFFFF;}
	.st3{fill:#FFA409;}
	.st4{fill:#FF9300;}
	.st5{fill:#FF8300;}
</style>
<g id="Layer_x0020_1">
	<g id="Layer_x0020_1_0">
		<rect y="0" class="st0" width="2500" height="2500"></rect>
		<g id="_2525452489376">
			<g id="Group_938">
				<g id="Group_931">
					<path id="Path_8573" class="st1" d="M1830.1,220.1c-65.1,64.3-124.7,134-177.7,208.4l-16.8-5.4c-96.6-31.2-196.8-50.5-297.7-57       c-30.4-2.3-143.8-2.3-180.8,0c-111.8,7.3-197.5,23.9-294.9,57.4c-3.9,1.5-7.4,2.7-10.9,3.9c-54.9-73.9-116.1-143.3-183.5-206.8       c323.4-163.7,701.7-183.3,1040.3-54.3c36.2,13.5,71.7,29.3,106.4,46.2L1830.1,220.1L1830.1,220.1L1830.1,220.1z"></path>
					<path id="Path_8574" class="st1" d="M2433.3,1681c-49.1,138.3-122.7,266.5-218.2,378.2c-51.8,60.1-109.1,115.2-170.7,165.2       c-144.2,114.8-312.5,196.8-492.1,240c-198.7,47.4-406,47.4-604.7,0c-180-43.1-347.9-125.2-492.1-240       c-61.6-50.1-118.8-105.1-170.6-165.2C10.3,1738.4-73.1,1297.8,66.7,900.7c26.5-73.6,59.6-144.4,99.3-211.8       c18.3-30.8,40.9-65.5,51.8-79.7c37.4,159.1,83.4,298.9,100.5,349.3c-1.2,2.7-2.7,5.8-4.3,8.5       c-90.8,181.8-139.9,357-151.6,543.5c0,2.3-0.4,5-0.4,7.3c-3.1,55.8-1.6,82.4,7.8,117.5C199,1745.1,289,1866,430.1,1984.6       c231,194.1,544.3,334.3,781.6,350.5c247.4,16.6,612.5-126.3,855.6-335.1c38.2-33.5,74-68.9,107.5-106.7       c24.1-27.7,60-75.5,57.3-75.5c-0.8,0,0-0.8,1.6-1.5c1.2-0.8,2.3-1.9,1.6-2.7c-0.4-0.4,0.4-1.5,1.6-1.9c1.2-0.4,1.9-1.2,1.6-1.9       c-0.3-0.7,0-1.5,1.6-1.9c1.2-0.4,1.6-1.5,1.2-2.3c-0.4-0.8,0-1.5,0.8-1.5c0.8,0,1.6-1.2,1.6-1.9c0-0.7,0.8-1.9,1.6-1.9       s1.6-0.8,1.6-1.5c1.2-3.1,3.1-6.2,5.1-8.9c5.9-8.9,29.2-50.1,32.3-57c22.2-49.7,36.2-94,42.9-138.3c3.1-21.2,5.1-60.1,3.5-69.3       c-0.4-1.5-0.4-4.2-0.8-8.5c-0.8-7.7-1.2-19.3-1.9-30.8c-0.8-17.3-2.3-41.6-3.5-53.5c-16.8-174.9-61.9-317.8-147.7-469.1       c-3.5-5.8-6.6-11.5-8.6-16.2c-0.8-1.2-1.2-2.3-1.6-3.1l0,0c12.1-35.8,61.6-185.7,100.9-357l0.8,0.8l5.8,7.7       c10.1,13.5,37,53.5,49.1,72.8c54.9,88.6,97.8,183.7,128.2,283.1C2521.7,1190.3,2515.9,1445.3,2433.3,1681L2433.3,1681       L2433.3,1681z"></path>
					<path id="Path_8575" d="M1927.6,1220.8c-1.2,6.2-19.5,24.7-37.8,38.1c-53.8,38.9-150,75.1-247.8,92.4       c-55.7,10-111.4,11.6-128.2,3.5c-10.9-5.4-12.5-9.6-8.6-23.5c8.2-28.9,34.7-60.5,76-90.1c21-15,106.4-66.3,146.1-87.8       c65.4-35.4,118.4-56.6,154.3-61.6c11.3-1.5,24.9-1.9,29.2,0c7,2.7,14.8,23.1,17.9,47.8       C1930.3,1152.6,1929.5,1210.4,1927.6,1220.8L1927.6,1220.8L1927.6,1220.8z"></path>
					<path id="Path_8576" d="M1009.6,1348.2c-2.3,4.6-14,9.6-27.3,11.6s-53.8,0.8-76.8-1.9c-82.6-10.8-170.3-35.8-234.2-66.6       c-35.8-17.3-61.6-34.7-80.7-53.5l-10.9-11.2l-1.2-14.6c-1.9-25.4-1.6-65.5,1.6-79.7c1.9-11.9,6.2-23.5,12.1-33.9       c3.1-3.8,3.1-3.8,17.2-3.8c17.1,0,31.6,2.7,54.9,10c47.9,14.6,119.2,50.1,206.1,101.7c71.7,42.4,98.6,63.2,119.2,91.7       C1003.8,1315.5,1013.1,1340.5,1009.6,1348.2L1009.6,1348.2L1009.6,1348.2z"></path>
					<path id="Path_8577" d="M1561.3,1884.4c0,1.2-4.7,19.7-10.5,41.6s-10.5,39.7-10.5,40.4c-4.3,0.4-8.2,0.8-12.5,0.4h-12.5       l-17.2,40.1c-9.3,21.9-17.9,42.4-19.1,45.5l-2.3,5.4l-8.2-13.1l-8.2-13.1v-106.7l-3.1,0.8c-6.6,1.6-53.8,7.7-74.4,9.6       c-85.3,8.5-171.1,6.5-256-5.4c-13.6-1.9-25.3-3.5-25.7-3.1c-0.4,0.4,0,25,0.8,55.5l1.2,54.7l-6.6,10c-3.5,5.4-7,10-7,10.4       c-1.2,1.1-5.1-5-14-22.7c-9.7-18.5-16.8-38.1-21.8-58.6l-2.7-11.2l-12.1,0.8l-12.1,1.2l-3.1-14.3c-1.6-7.7-3.5-19.7-4.3-26.2       l-1.2-12.3l-10.1-8.9c-5.8-5-11.7-10-12.8-10.8c-2-1.5-2.7-4.2-2.7-6.6v-4.6l48.7,0.4l48.7,0.4l1.6,5l1.6,5l16.8,0.8       c9.3,0.4,39,1.2,65.4,1.9l48.7,1.2l12.5-19.3l12.9-19.3l16.4,0l-0.4-40.1l-0.4-40.1l-21.4-9.2c-69-30.1-109.5-64.3-124.7-105.9       c-3.1-8.5-3.1-11.6-3.9-50.1c-0.4-38.1-0.4-41.6,2.3-50.1c5.5-19.3,20.7-34.3,40.1-39.3c6.6-1.9,24.2-1.9,116.1-1.9l108.3,0.4       l12.1,5.8c14.4,6.9,21,11.9,29.2,22.7c9.3,12.3,12.1,22,12.1,45.4c0,33.5-2.3,62.4-5.8,73.9c-5.1,15.8-12.9,30.8-22.6,44.3       c-19.5,24.7-54.9,49.3-87.3,60.5l-9.4,3.5l0.4,40.4l0.4,40.4l8.6,0.8l8.6,0.8l11.7,17.3l11.3,17.3h52.2       c28.8,0,54.1,0.4,56.5,0.8c3.9,0.8,4.7,0.4,8.6-6.2l4.7-6.9h44.8C1551.2,1882.5,1561.3,1883.2,1561.3,1884.4L1561.3,1884.4       L1561.3,1884.4z"></path>
					<path id="Path_8578" d="M1355.6,1994.9c-7.4,4.2-12.5,6.2-13.6,5.4c-1.2-0.4-6.6-5-12.5-9.3l-10.5-8.5l-10.9,11.6       c-23.8,25.4-24.6,26.6-31.6,27c-10.9,1.2-13.3-0.8-26.5-20.4c-7-10-12.5-18.5-12.5-18.5s-5.1-0.8-10.9-1.2l-10.9-1.2l-5.1,10.4       l-5.1,10.4l-9-2.7c-7-2.3-14-5-20.6-8.1l-11.7-5.8v-21.9l103.6,0.4l103.6,0.4l0.4,10.4       C1372.4,1985.7,1372.7,1985.3,1355.6,1994.9L1355.6,1994.9L1355.6,1994.9z"></path>
				</g>
				<path id="Path_8579" class="st2" d="M2329.6,1525c-0.4-1.5-0.4-4.2-0.8-8.5c-93.5-10-360.4-16.2-608.2,186      c0,0-79.9-362.1-453.9-362.1S754,1702.6,754,1702.6c-209.6-223-490.1-206.8-591.4-192.2c0,2.3-0.4,5-0.4,7.3      c-3.1,55.8-1.6,82.4,7.8,117.5c29.2,109.8,119.2,230.7,260.3,349.3c231,194.1,544.3,334.3,781.6,350.5      c247.4,16.6,612.5-126.3,855.6-335.1c38.2-33.5,74-68.9,107.5-106.7c24.2-27.7,60-75.5,57.3-75.5c-0.8,0,0-0.8,1.6-1.5      c1.2-0.8,2.3-1.9,1.6-2.7c-0.4-0.4,0.4-1.5,1.6-1.9c1.2-0.4,1.9-1.2,1.6-1.9c-0.4-0.8,0-1.5,1.6-1.9c1.2-0.4,1.6-1.5,1.2-2.3      c-0.4-0.8,0-1.5,0.8-1.5c0.8,0,1.6-1.2,1.6-1.9c0-0.7,0.8-1.9,1.6-1.9c0.8,0,1.6-0.8,1.6-1.5c1.2-3.1,3.1-6.2,5.1-8.9      c5.9-8.9,29.2-50.1,32.3-57c22.2-49.7,36.2-94,42.9-138.3C2329.3,1573.2,2331.2,1534.3,2329.6,1525L2329.6,1525L2329.6,1525z       M1355.6,1995c-7.4,4.2-12.5,6.2-13.6,5.4c-1.2-0.4-6.6-5-12.5-9.3l-10.5-8.5l-10.9,11.6c-23.8,25.4-24.6,26.6-31.6,27      c-10.9,1.2-13.3-0.8-26.5-20.4c-7-10-12.5-18.5-12.5-18.5s-5.1-0.8-10.9-1.2l-10.9-1.2l-5.1,10.4l-5.1,10.4l-9-2.7      c-7-2.3-14-5-20.7-8.1l-11.7-5.8v-21.9l103.6,0.4l103.6,0.4l0.4,10.4C1372.3,1985.7,1372.7,1985.3,1355.6,1995L1355.6,1995      L1355.6,1995z M1550.4,1925.6c-5.8,22-10.5,39.7-10.5,40.4c-4.3,0.4-8.2,0.8-12.5,0.4h-12.5l-16.8,40.4      c-9.4,21.9-17.9,42.4-19.1,45.5l-2.3,5.4l-8.2-13.1l-8.2-13.1v-106.7l-3.1,0.8c-6.6,1.6-53.8,7.7-74.4,9.6      c-85.3,8.5-171.1,6.5-256-5.4c-13.6-1.9-25.3-3.5-25.7-3.1c-0.4,0.4,0,25,0.8,55.5l1.2,54.7l-6.6,10c-3.5,5.4-7,10-7,10.4      c-1.2,1.1-5.1-5-14-22.7c-9.7-18.5-16.8-38.1-21.8-58.6l-2.7-11.2l-12.1,0.8l-12.1,1.2l-3.1-14.3c-1.6-7.7-3.5-19.7-4.3-26.2      l-1.2-12.3l-10.1-8.9c-5.8-5-11.7-10-12.8-10.8c-1.9-1.5-2.7-4.2-2.7-6.6v-4.6l48.7,0.4l48.7,0.4l1.6,5l1.6,5l16.8,0.8      c9.3,0.4,39,1.2,65.4,1.9l48.7,1.2l12.5-19.3l12.9-19.3h16.4l-0.4-40.1l-0.4-40.1l-21.4-9.2c-69-30.1-109.5-64.3-124.7-105.9      c-3.1-8.5-3.1-11.6-3.9-50.1c-0.4-38.1-0.4-41.6,2.3-50.1c5.4-19.3,20.6-34.3,40.1-39.3c6.6-1.9,24.2-1.9,116.1-1.9l108.3,0.4      l12.1,5.8c14.4,6.9,21,11.9,29.2,22.7c9.3,12.3,12.1,22,12.1,45.4c0,33.5-2.3,62.4-5.8,73.9c-5.1,15.8-12.9,30.8-22.6,44.3      c-19.5,24.7-54.9,49.3-87.3,60.5l-9.4,3.5l0.4,40.4l0.4,40.4l8.6,0.8l8.6,0.8l11.7,17.3l11.3,17.3h52.2      c28.8,0,54.2,0.4,56.5,0.8c3.9,0.8,4.7,0.4,8.6-6.2l4.7-6.9h44.8c34.7,0,44.8,0.4,44.8,1.5      C1561.3,1885.2,1556.2,1904,1550.4,1925.6L1550.4,1925.6L1550.4,1925.6z"></path>
				<path id="Path_8580" class="st0" d="M161.8,1510.4c-24.6,3.5-39,7.3-39,7.3"></path>
				<path id="Path_8581" class="st0" d="M2363.5,1521.6c0,0-12.5-2.7-34.7-5"></path>
				<path id="Path_8582" class="st3" d="M2326.5,1485.8c-0.8-17.3-2.3-41.6-3.5-53.5c-16.8-174.9-61.9-317.8-147.7-469.1      c-3.5-5.8-6.6-11.5-8.6-16.2c-0.8-1.2-1.2-2.3-1.6-3.1l0,0c12.1-35.8,61.6-185.7,100.9-357c53.4-232.6,87.3-504.6-16.4-586.2      c0,0-179.2-13.1-419.2,219.5c-65.1,64.3-124.7,134-177.7,208.4l-16.8-5.4c-96.6-31.2-196.8-50.5-297.7-57      c-30.4-2.3-143.8-2.3-180.8,0c-111.8,7.3-197.5,23.9-294.9,57.4c-3.9,1.5-7.4,2.7-10.9,3.9c-54.9-73.9-116.1-143.3-183.5-206.8      C418.4-13.1,232.5,0.4,232.5,0.4C122.6,84.7,160,369,216.9,609.4c37.4,159.1,83.4,298.9,100.5,349.3c-1.2,2.7-2.7,5.8-4.3,8.5      c-90.8,181.8-139.9,357.1-151.6,543.5c101.7-14.6,381.8-31.2,591.8,192.2c0,0,138.7-362.1,512.7-362.1      c374,0,453.9,362.1,453.9,362.1c247.8-202.2,514.7-195.7,608.2-186C2328.1,1508.9,2327.3,1497.3,2326.5,1485.8L2326.5,1485.8      L2326.5,1485.8z M391.3,813.2c0,0-145.7-360.1-108.3-565.8l0,0c6.2-34.7,17.9-65.1,36.2-88.2c0,0,165.2,16.2,431.7,308.9      c0,0-50.7,24.3-118.5,75.9c0,0-0.4,0.4-0.8,0.4C558.1,600.2,463.8,688.8,391.3,813.2L391.3,813.2L391.3,813.2L391.3,813.2z       M1009.6,1348.2c-2.3,4.6-14,9.6-27.3,11.6s-53.8,0.8-76.8-1.9c-82.6-10.8-170.3-35.8-234.2-66.6      c-35.8-17.3-61.6-34.7-80.7-53.5l-10.9-11.2l-1.2-14.6c-2-25.4-1.6-65.5,1.6-79.7c1.9-11.9,6.2-23.5,12.1-33.9      c3.1-3.8,3.1-3.8,17.2-3.8c17.1,0,31.6,2.7,54.9,10c47.9,14.6,119.2,50.1,206.1,101.7c71.7,42.4,98.6,63.2,119.2,91.7      C1003.8,1315.5,1013.1,1340.5,1009.6,1348.2L1009.6,1348.2L1009.6,1348.2z M1927.6,1220.8c-1.2,6.2-19.5,24.7-37.8,38.1      c-53.8,38.9-150,75.1-247.8,92.4c-55.7,10-111.4,11.6-128.2,3.5c-10.9-5.4-12.5-9.6-8.6-23.5c8.2-28.9,34.7-60.5,76-90.1      c21-15,106.4-66.3,146.1-87.8c65.4-35.4,118.4-56.6,154.3-61.6c11.3-1.5,24.9-1.9,29.2,0c7,2.7,14.8,23.1,17.9,47.8      C1930.3,1152.6,1929.5,1210.4,1927.6,1220.8L1927.6,1220.8z M1862.9,544l-0.8-0.4c-65.4-51.6-114.5-75.9-114.5-75.9      c257.5-292.7,416.9-308.9,416.9-308.9c17.5,23.5,28.8,53.5,35.1,88.2l0,0c36.2,205.7-104.4,566.2-104.4,566.2      C2036.3,709.6,1957.2,618,1862.9,544L1862.9,544L1862.9,544z"></path>
				<path id="Path_8583" class="st0" d="M1652.5,428.5c-0.8,0.8-1.2,1.9-1.9,2.7"></path>
				<path id="Path_8584" class="st0" d="M2164.8,943.4c-1.9,5.4-2.7,8.1-2.7,8.1"></path>
				<g id="Group_934">
					<g id="Group_933">
						<g id="Group_932">
							<path id="Path_8585" class="st4" d="M2199.9,247c-30.4-3.8-174.2-4.6-337,297l-0.8-0.4c-65.5-51.6-114.6-75.9-114.6-75.9         C2005,175,2164.4,158.8,2164.4,158.8C2182.4,182.3,2193.7,212.4,2199.9,247L2199.9,247z"></path>
						</g>
						<path id="Path_8586" class="st5" d="M2095.5,813.2c-59.2-104-137.9-195.3-232.6-269.2c162.9-301.6,306.2-300.8,337-297l0,0        C2236.1,453.1,2095.5,813.2,2095.5,813.2z"></path>
						<path id="Path_8587" class="st5" d="M2205.7,248.2c-1.9-0.4-3.9-0.8-5.9-1.2L2205.7,248.2z"></path>
					</g>
				</g>
				<path id="Path_8588" class="st0" d="M863.5,443.5c-3.9-5.4-8.2-10.8-12.1-16.2"></path>
				<path id="Path_8589" class="st0" d="M317.7,958.5c4.3,13.1,7,20,7,20"></path>
				<g id="Group_937">
					<g id="Group_936">
						<g id="Group_935">
							<path id="Path_8590" class="st4" d="M750.9,467.7c0,0-50.6,24.3-118.4,75.9c0,0-0.4,0.4-0.8,0.4         C463,242,314.5,243.2,282.6,247c6.2-34.7,17.9-65.1,36.2-88.2C319.2,158.8,484.4,175,750.9,467.7L750.9,467.7L750.9,467.7z"></path>
						</g>
						<path id="Path_8591" class="st5" d="M632.1,544c-74,56.2-168.3,144.4-240.8,269.2c0,0-145.7-360.1-108.3-566.2l0,0        C314.5,243.2,463.4,242.4,632.1,544z"></path>
						<path id="Path_8592" class="st5" d="M283,247c-1.9,0.4-4.3,0.8-6.2,1.2L283,247z"></path>
					</g>
				</g>
				<path id="Path_8593" class="st2" d="M1701.2,1013.2c0,0-124.7,7.7-109.1-88.6c15.6-96.3,113-107.8,140.3-104      s136.4,42.4,116.9,123.3s-46.8,65.5-62.3,69.3C1771.3,1017,1701.2,1013.2,1701.2,1013.2L1701.2,1013.2z"></path>
				<path id="Path_8594" class="st2" d="M781.7,1013.2c0,0-124.7,7.7-109.1-88.6c15.6-96.3,113-107.8,140.3-104      S949.3,863,929.8,943.9c-19.5,80.9-46.8,65.5-62.3,69.3C851.8,1017,781.7,1013.2,781.7,1013.2L781.7,1013.2z"></path>
			</g>
		</g>
	</g>
</g>
</svg>
